<?xml version="1.0" encoding="UTF-8" standalone="no"?>
<!DOCTYPE svg PUBLIC "-//W3C//DTD SVG 1.1//EN" "http://www.w3.org/Graphics/SVG/1.1/DTD/svg11.dtd">
<svg width="100%" height="100%" viewBox="0 0 120 120" version="1.1" xmlns="http://www.w3.org/2000/svg" xmlns:xlink="http://www.w3.org/1999/xlink" xml:space="preserve" xmlns:serif="http://www.serif.com/" style="fill-rule:evenodd;clip-rule:evenodd;stroke-linejoin:round;stroke-miterlimit:2;">
    <g transform="matrix(1.14986,0,0,1.14986,-8.51117,-7.8895)">
        <g transform="matrix(1.17886,0,0,1.17886,-9.85525,-19.5)">
            <path d="M86.349,39.147C86.349,31.252 79.94,24.843 72.045,24.843L40.125,24.843C32.231,24.843 25.822,31.252 25.822,39.147L25.822,67.754C25.822,75.648 32.231,82.058 40.125,82.058L72.045,82.058C79.94,82.058 86.349,75.648 86.349,67.754L86.349,39.147Z" style="fill:rgb(235,235,235);"/>
        </g>
        <g transform="matrix(1.17886,0,0,1.17886,-9.85525,-19.5)">
            <path d="M89.962,89.548C89.962,86.079 87.146,83.262 83.676,83.262L29.398,83.262C25.928,83.262 23.112,86.079 23.112,89.548L23.112,102.12C23.112,105.59 25.928,108.407 29.398,108.407L83.676,108.407C87.146,108.407 89.962,105.59 89.962,102.12L89.962,89.548Z" style="fill:rgb(235,235,235);"/>
        </g>
        <g transform="matrix(1.17886,0,0,1.17886,-9.85525,-19.5)">
            <path d="M81.832,42.572C81.832,36.028 76.519,30.715 69.975,30.715L43.25,30.715C36.706,30.715 31.393,36.028 31.393,42.572L31.393,66.286C31.393,72.83 36.706,78.143 43.25,78.143L69.975,78.143C76.519,78.143 81.832,72.83 81.832,66.286L81.832,42.572Z" style="fill:rgb(24,33,45);"/>
        </g>
        <g transform="matrix(1.17886,0,0,1.17886,-9.85525,-19.5)">
            <rect x="60.452" y="89.737" width="27.102" height="7.077" style="fill:rgb(24,33,45);"/>
        </g>
        <g transform="matrix(1.17886,0,0,1.17886,-9.85525,-19.5)">
            <rect x="26.575" y="87.629" width="5.42" height="5.721" style="fill:rgb(24,33,45);"/>
        </g>
        <g transform="matrix(2.43147,0,0,2.43147,-61.7397,-64.5912)">
            <text x="38.319px" y="50.891px" style="font-family:'ArialMT', 'Arial', sans-serif;font-size:14.293px;fill:white;">&lt; &gt;</text>
        </g>
    </g>
    <g id="Layer1">
        <g transform="matrix(0.71875,-1.73472e-18,0,1,16.5818,-5.69648)">
            <path d="M57.139,27.967C57.139,27.49 56.6,27.102 55.935,27.102L53.526,27.102C52.861,27.102 52.321,27.49 52.321,27.967L52.321,62.07C52.321,62.548 52.861,62.936 53.526,62.936L55.935,62.936C56.6,62.936 57.139,62.548 57.139,62.07L57.139,27.967Z" style="fill:white;"/>
        </g>
        <g transform="matrix(0.578947,0,0,1,23.7512,0.451694)">
            <path d="M59.699,34.668C59.699,33.982 58.737,33.425 57.553,33.425L53.262,33.425C52.078,33.425 51.117,33.982 51.117,34.668L51.117,56.274C51.117,56.959 52.078,57.516 53.262,57.516L57.553,57.516C58.737,57.516 59.699,56.959 59.699,56.274L59.699,34.668Z" style="fill:white;"/>
        </g>
        <g transform="matrix(1,0,0,1,-6.77541,1.1744)">
            <path d="M71.593,16.939C71.593,16.481 71.222,16.11 70.765,16.11L69.109,16.11C68.652,16.11 68.281,16.481 68.281,16.939L68.281,22.66C68.281,23.117 68.652,23.488 69.109,23.488L70.765,23.488C71.222,23.488 71.593,23.117 71.593,22.66L71.593,16.939Z" style="fill:white;"/>
        </g>
        <g transform="matrix(0.632759,0,0,0.851852,19.3438,5.57089)">
            <path d="M67.679,17.277C67.679,16.716 67.066,16.261 66.311,16.261L51.582,16.261C50.826,16.261 50.213,16.716 50.213,17.277L50.213,19.31C50.213,19.871 50.826,20.326 51.582,20.326L66.311,20.326C67.066,20.326 67.679,19.871 67.679,19.31L67.679,17.277Z" style="fill:white;"/>
        </g>
        <g transform="matrix(0.295988,1.34284,-1.12368,0.247681,66.2451,-30.5271)">
            <path d="M36.813,17.014C34.819,17.014 33.199,19.476 33.199,22.509C33.199,25.543 34.819,28.005 36.813,28.005C36.215,26.723 35.729,24.702 35.729,22.509C35.729,20.317 36.215,18.296 36.813,17.014Z" style="fill:white;"/>
        </g>
    </g>
</svg>
